<?xml version="1.0" encoding="UTF-8" standalone="no"?>
<svg
   enable-background="new 137.0506 317.7981 1645.9495 1284.4164"
   version="1.1"
   viewBox="137.0506 317.7981 48.000001 48.000001"
   id="svg32"
   sodipodi:docname="camera.svg"
   width="48"
   height="48"
   inkscape:version="1.3 (0e150ed6c4, 2023-07-21)"
   xml:space="preserve"
   xmlns:inkscape="http://www.inkscape.org/namespaces/inkscape"
   xmlns:sodipodi="http://sodipodi.sourceforge.net/DTD/sodipodi-0.dtd"
   xmlns="http://www.w3.org/2000/svg"
   xmlns:svg="http://www.w3.org/2000/svg"><sodipodi:namedview
     id="namedview34"
     pagecolor="#505050"
     bordercolor="#eeeeee"
     borderopacity="1"
     inkscape:showpageshadow="0"
     inkscape:pageopacity="0"
     inkscape:pagecheckerboard="0"
     inkscape:deskcolor="#505050"
     showgrid="false"
     inkscape:zoom="4.2204315"
     inkscape:cx="-78.427999"
     inkscape:cy="51.298072"
     inkscape:window-width="3440"
     inkscape:window-height="1351"
     inkscape:window-x="-9"
     inkscape:window-y="-9"
     inkscape:window-maximized="1"
     inkscape:current-layer="svg32" /><defs
     id="defs36"><inkscape:perspective
       sodipodi:type="inkscape:persp3d"
       inkscape:vp_x="-60.69154 : 47.715432 : 1"
       inkscape:vp_y="0 : 1000 : 0"
       inkscape:vp_z="103.82388 : 51.36687 : 1"
       inkscape:persp3d-origin="27.431588 : 18.132483 : 1"
       id="perspective13" /></defs><g
     id="g34"
     transform="translate(-0.01374125,-2.4367438)"><path
       d="m 147.03966,324.05922 32.932,2.78463 v 33.90427 l -32.932,-13.56069 z"
       style="fill:#e9e9ff;fill-rule:evenodd;stroke:none;stroke-width:0.345535;stroke-linejoin:round"
       id="path29" /><path
       d="m 142.32979,324.54248 v 24.28909 l 4.70987,-1.64414 v -23.12821 z"
       style="fill:#353564;fill-rule:evenodd;stroke:none;stroke-width:0.345535;stroke-linejoin:round"
       id="path30" /><path
       d="m 142.32979,348.83157 33.05336,15.40614 4.58851,-3.48959 -32.932,-13.56069 z"
       style="fill:#afafde;fill-rule:evenodd;stroke:none;stroke-width:0.345535;stroke-linejoin:round"
       id="path31" /><path
       d="m 142.32979,324.54248 33.05336,3.23656 4.58851,-0.93519 -32.932,-2.78463 z"
       style="fill:#27812e;fill-opacity:1;fill-rule:evenodd;stroke:none;stroke-width:0.345535;stroke-linejoin:round"
       id="path32" /><path
       d="m 175.38315,327.77904 v 36.45867 l 4.58851,-3.48959 v -33.90427 z"
       style="fill:#c4ffc9;fill-opacity:1;fill-rule:evenodd;stroke:none;stroke-width:0.345535;stroke-linejoin:round"
       id="path33" /><path
       d="m 142.32979,324.54248 33.05336,3.23656 v 36.45867 l -33.05336,-15.40614 z"
       style="fill:none;fill-rule:evenodd;stroke:#000000;stroke-width:0.345535;stroke-linejoin:round;stroke-opacity:1"
       id="path34" /><g
       id="g1"
       transform="matrix(17.3544,0,0,17.3544,115.58,216.245)"><path
         id="rect1"
         d="M 3.446,6.42684 V 8.52767 L 1.54139,7.63994 v -1.3996 z" /><path
         d="M 3.446,6.42684 1.54139,6.24034 V 6.52026 L 3.446,6.84701 Z m 0,0.84033 L 1.54139,6.80018 V 7.0801 L 3.446,7.68734 Z m 0,0.84034 L 1.54139,7.36002 V 7.63994 L 3.446,8.52767 Z m 0,-1.68067 V 8.52767 L 2.9263,8.28544 V 6.37595 Z M 2.49337,6.33356 V 8.08365 L 2.12714,7.91296 V 6.2977 Z M 1.81332,6.26697 V 7.76668 L 1.54139,7.63994 v -1.3996 z"
         fill="#ffffff"
         fill-rule="evenodd"
         id="path1" /></g></g></svg>
